<svg width="256" height="256" viewBox="0 0 256 256" xmlns="http://www.w3.org/2000/svg">
  <defs>
    <radialGradient id="desaturate" cx="50%" cy="50%" r="50%">
      <stop offset="0%" stop-color="#ffffff" stop-opacity="0.98"/>
      <stop offset="42%" stop-color="#ffffff" stop-opacity="0.44"/>
      <stop offset="74%" stop-color="#ffffff" stop-opacity="0.07"/>
      <stop offset="100%" stop-color="#ffffff" stop-opacity="0"/>
    </radialGradient>
    <radialGradient id="edge-shade" cx="50%" cy="50%" r="50%">
      <stop offset="0%" stop-color="#000000" stop-opacity="0"/>
      <stop offset="80%" stop-color="#000000" stop-opacity="0"/>
      <stop offset="100%" stop-color="#000000" stop-opacity="0.16"/>
    </radialGradient>
    <filter id="shadow" x="-20%" y="-20%" width="140%" height="140%">
      <feDropShadow dx="0" dy="3" stdDeviation="5" flood-color="#000000" flood-opacity="0.45"/>
    </filter>
  </defs>
  <g filter="url(#shadow)">
    <path d="M 128 128 L 248.000 128.000 A 120 120 0 0 1 247.422 139.762 Z" fill="#ff0000"/>
    <path d="M 128 128 L 247.422 139.762 A 120 120 0 0 1 245.694 151.411 Z" fill="#ff1700"/>
    <path d="M 128 128 L 245.694 151.411 A 120 120 0 0 1 242.833 162.834 Z" fill="#ff2f00"/>
    <path d="M 128 128 L 242.833 162.834 A 120 120 0 0 1 238.866 173.922 Z" fill="#ff4700"/>
    <path d="M 128 128 L 238.866 173.922 A 120 120 0 0 1 233.831 184.568 Z" fill="#ff5f00"/>
    <path d="M 128 128 L 233.831 184.568 A 120 120 0 0 1 227.776 194.668 Z" fill="#ff7700"/>
    <path d="M 128 128 L 227.776 194.668 A 120 120 0 0 1 220.761 204.127 Z" fill="#ff8f00"/>
    <path d="M 128 128 L 220.761 204.127 A 120 120 0 0 1 212.853 212.853 Z" fill="#ffa700"/>
    <path d="M 128 128 L 212.853 212.853 A 120 120 0 0 1 204.127 220.761 Z" fill="#ffbf00"/>
    <path d="M 128 128 L 204.127 220.761 A 120 120 0 0 1 194.668 227.776 Z" fill="#ffd700"/>
    <path d="M 128 128 L 194.668 227.776 A 120 120 0 0 1 184.568 233.831 Z" fill="#ffef00"/>
    <path d="M 128 128 L 184.568 233.831 A 120 120 0 0 1 173.922 238.866 Z" fill="#f7ff00"/>
    <path d="M 128 128 L 173.922 238.866 A 120 120 0 0 1 162.834 242.833 Z" fill="#dfff00"/>
    <path d="M 128 128 L 162.834 242.833 A 120 120 0 0 1 151.411 245.694 Z" fill="#c7ff00"/>
    <path d="M 128 128 L 151.411 245.694 A 120 120 0 0 1 139.762 247.422 Z" fill="#afff00"/>
    <path d="M 128 128 L 139.762 247.422 A 120 120 0 0 1 128.000 248.000 Z" fill="#97ff00"/>
    <path d="M 128 128 L 128.000 248.000 A 120 120 0 0 1 116.238 247.422 Z" fill="#7fff00"/>
    <path d="M 128 128 L 116.238 247.422 A 120 120 0 0 1 104.589 245.694 Z" fill="#67ff00"/>
    <path d="M 128 128 L 104.589 245.694 A 120 120 0 0 1 93.166 242.833 Z" fill="#4fff00"/>
    <path d="M 128 128 L 93.166 242.833 A 120 120 0 0 1 82.078 238.866 Z" fill="#37ff00"/>
    <path d="M 128 128 L 82.078 238.866 A 120 120 0 0 1 71.432 233.831 Z" fill="#1fff00"/>
    <path d="M 128 128 L 71.432 233.831 A 120 120 0 0 1 61.332 227.776 Z" fill="#07ff00"/>
    <path d="M 128 128 L 61.332 227.776 A 120 120 0 0 1 51.873 220.761 Z" fill="#00ff0f"/>
    <path d="M 128 128 L 51.873 220.761 A 120 120 0 0 1 43.147 212.853 Z" fill="#00ff27"/>
    <path d="M 128 128 L 43.147 212.853 A 120 120 0 0 1 35.239 204.127 Z" fill="#00ff3f"/>
    <path d="M 128 128 L 35.239 204.127 A 120 120 0 0 1 28.224 194.668 Z" fill="#00ff57"/>
    <path d="M 128 128 L 28.224 194.668 A 120 120 0 0 1 22.169 184.568 Z" fill="#00ff6f"/>
    <path d="M 128 128 L 22.169 184.568 A 120 120 0 0 1 17.134 173.922 Z" fill="#00ff87"/>
    <path d="M 128 128 L 17.134 173.922 A 120 120 0 0 1 13.167 162.834 Z" fill="#00ff9f"/>
    <path d="M 128 128 L 13.167 162.834 A 120 120 0 0 1 10.306 151.411 Z" fill="#00ffb7"/>
    <path d="M 128 128 L 10.306 151.411 A 120 120 0 0 1 8.578 139.762 Z" fill="#00ffcf"/>
    <path d="M 128 128 L 8.578 139.762 A 120 120 0 0 1 8.000 128.000 Z" fill="#00ffe7"/>
    <path d="M 128 128 L 8.000 128.000 A 120 120 0 0 1 8.578 116.238 Z" fill="#00ffff"/>
    <path d="M 128 128 L 8.578 116.238 A 120 120 0 0 1 10.306 104.589 Z" fill="#00e7ff"/>
    <path d="M 128 128 L 10.306 104.589 A 120 120 0 0 1 13.167 93.166 Z" fill="#00cfff"/>
    <path d="M 128 128 L 13.167 93.166 A 120 120 0 0 1 17.134 82.078 Z" fill="#00b7ff"/>
    <path d="M 128 128 L 17.134 82.078 A 120 120 0 0 1 22.169 71.432 Z" fill="#009fff"/>
    <path d="M 128 128 L 22.169 71.432 A 120 120 0 0 1 28.224 61.332 Z" fill="#0087ff"/>
    <path d="M 128 128 L 28.224 61.332 A 120 120 0 0 1 35.239 51.873 Z" fill="#006fff"/>
    <path d="M 128 128 L 35.239 51.873 A 120 120 0 0 1 43.147 43.147 Z" fill="#0057ff"/>
    <path d="M 128 128 L 43.147 43.147 A 120 120 0 0 1 51.873 35.239 Z" fill="#003fff"/>
    <path d="M 128 128 L 51.873 35.239 A 120 120 0 0 1 61.332 28.224 Z" fill="#0027ff"/>
    <path d="M 128 128 L 61.332 28.224 A 120 120 0 0 1 71.432 22.169 Z" fill="#000fff"/>
    <path d="M 128 128 L 71.432 22.169 A 120 120 0 0 1 82.078 17.134 Z" fill="#0700ff"/>
    <path d="M 128 128 L 82.078 17.134 A 120 120 0 0 1 93.166 13.167 Z" fill="#1f00ff"/>
    <path d="M 128 128 L 93.166 13.167 A 120 120 0 0 1 104.589 10.306 Z" fill="#3700ff"/>
    <path d="M 128 128 L 104.589 10.306 A 120 120 0 0 1 116.238 8.578 Z" fill="#4f00ff"/>
    <path d="M 128 128 L 116.238 8.578 A 120 120 0 0 1 128.000 8.000 Z" fill="#6700ff"/>
    <path d="M 128 128 L 128.000 8.000 A 120 120 0 0 1 139.762 8.578 Z" fill="#7f00ff"/>
    <path d="M 128 128 L 139.762 8.578 A 120 120 0 0 1 151.411 10.306 Z" fill="#9700ff"/>
    <path d="M 128 128 L 151.411 10.306 A 120 120 0 0 1 162.834 13.167 Z" fill="#af00ff"/>
    <path d="M 128 128 L 162.834 13.167 A 120 120 0 0 1 173.922 17.134 Z" fill="#c700ff"/>
    <path d="M 128 128 L 173.922 17.134 A 120 120 0 0 1 184.568 22.169 Z" fill="#df00ff"/>
    <path d="M 128 128 L 184.568 22.169 A 120 120 0 0 1 194.668 28.224 Z" fill="#f700ff"/>
    <path d="M 128 128 L 194.668 28.224 A 120 120 0 0 1 204.127 35.239 Z" fill="#ff00ef"/>
    <path d="M 128 128 L 204.127 35.239 A 120 120 0 0 1 212.853 43.147 Z" fill="#ff00d7"/>
    <path d="M 128 128 L 212.853 43.147 A 120 120 0 0 1 220.761 51.873 Z" fill="#ff00bf"/>
    <path d="M 128 128 L 220.761 51.873 A 120 120 0 0 1 227.776 61.332 Z" fill="#ff00a7"/>
    <path d="M 128 128 L 227.776 61.332 A 120 120 0 0 1 233.831 71.432 Z" fill="#ff008f"/>
    <path d="M 128 128 L 233.831 71.432 A 120 120 0 0 1 238.866 82.078 Z" fill="#ff0077"/>
    <path d="M 128 128 L 238.866 82.078 A 120 120 0 0 1 242.833 93.166 Z" fill="#ff005f"/>
    <path d="M 128 128 L 242.833 93.166 A 120 120 0 0 1 245.694 104.589 Z" fill="#ff0047"/>
    <path d="M 128 128 L 245.694 104.589 A 120 120 0 0 1 247.422 116.238 Z" fill="#ff002f"/>
    <path d="M 128 128 L 247.422 116.238 A 120 120 0 0 1 248.000 128.000 Z" fill="#ff0017"/>
    <circle cx="128" cy="128" r="120" fill="url(#desaturate)"/>
    <circle cx="128" cy="128" r="120" fill="url(#edge-shade)"/>
    <circle cx="128" cy="128" r="120" fill="none" stroke="#555b62" stroke-width="7"/>
    <circle cx="128" cy="128" r="116" fill="none" stroke="#0f1318" stroke-opacity="0.35" stroke-width="1"/>
  </g>
</svg>
